REM DIRINDEX 1\5,1\2\6,1\2\7,1\3\8,1\3\9,1\4\10,1\4\11,1\4\12
REM DIRNAME folder01,folder02,folder03,folder04,folder05,folder06,folder07,folder08,folder09,folder10,folder11,folder12
TITLE ""
FILE "EJE_DB3000_5th_5C_08.mp3" MP3
  TRACK 01 AUDIO
    TITLE "0:"
    INDEX 01 00:00:00
  TRACK 02 AUDIO
    TITLE "10:cjc026_10404"
    INDEX 01 00:00:05
  TRACK 03 AUDIO
    TITLE "0:"
    INDEX 01 00:00:74
  TRACK 04 AUDIO
    TITLE "11:cjc026_10405"
    INDEX 01 00:01:24
  TRACK 05 AUDIO
    TITLE "0:"
    INDEX 01 00:02:32
  TRACK 06 AUDIO
    TITLE "12:cjc026_10406"
    INDEX 01 00:02:57
  TRACK 07 AUDIO
    TITLE "0:"
    INDEX 01 00:03:53
  TRACK 08 AUDIO
    TITLE "10:cjc026_10407"
    INDEX 01 00:04:01
  TRACK 09 AUDIO
    TITLE "0:"
    INDEX 01 00:04:68
  TRACK 10 AUDIO
    TITLE "11:cjc026_10408"
    INDEX 01 00:05:18
  TRACK 11 AUDIO
    TITLE "0:"
    INDEX 01 00:06:12
  TRACK 12 AUDIO
    TITLE "12:cjc026_10409"
    INDEX 01 00:06:37
  TRACK 13 AUDIO
    TITLE "0:"
    INDEX 01 00:07:27
  TRACK 14 AUDIO
    TITLE "10:cjc026_10410"
    INDEX 01 00:07:52
  TRACK 15 AUDIO
    TITLE "0:"
    INDEX 01 00:08:44
  TRACK 16 AUDIO
    TITLE "11:cjc026_10411"
    INDEX 01 00:08:70
  TRACK 17 AUDIO
    TITLE "0:"
    INDEX 01 00:09:73
  TRACK 18 AUDIO
    TITLE "12:cjc026_10412"
    INDEX 01 00:10:23
  TRACK 19 AUDIO
    TITLE "0:"
    INDEX 01 00:11:15
  TRACK 20 AUDIO
    TITLE "10:cjc026_10413"
    INDEX 01 00:11:42
  TRACK 21 AUDIO
    TITLE "0:"
    INDEX 01 00:12:36
  TRACK 22 AUDIO
    TITLE "11:cjc026_10414"
    INDEX 01 00:12:63
  TRACK 23 AUDIO
    TITLE "0:"
    INDEX 01 00:13:57
  TRACK 24 AUDIO
    TITLE "12:cjc026_10415"
    INDEX 01 00:14:09
  TRACK 25 AUDIO
    TITLE "0:"
    INDEX 01 00:15:05
  TRACK 26 AUDIO
    TITLE "10:cjc026_10416"
    INDEX 01 00:15:30
  TRACK 27 AUDIO
    TITLE "0:"
    INDEX 01 00:16:53
  TRACK 28 AUDIO
    TITLE "11:cjc026_10417"
    INDEX 01 00:17:02
  TRACK 29 AUDIO
    TITLE "0:"
    INDEX 01 00:18:09
  TRACK 30 AUDIO
    TITLE "12:cjc026_10418"
    INDEX 01 00:18:33
  TRACK 31 AUDIO
    TITLE "0:"
    INDEX 01 00:19:54
  TRACK 32 AUDIO
    TITLE "10:cjc026_10419"
    INDEX 01 00:20:04
  TRACK 33 AUDIO
    TITLE "0:"
    INDEX 01 00:20:73
  TRACK 34 AUDIO
    TITLE "11:cjc026_10420"
    INDEX 01 00:21:25
  TRACK 35 AUDIO
    TITLE "0:"
    INDEX 01 00:22:27
  TRACK 36 AUDIO
    TITLE "12:cjc026_10421"
    INDEX 01 00:22:54
  TRACK 37 AUDIO
    TITLE "0:"
    INDEX 01 00:23:48
  TRACK 38 AUDIO
    TITLE "10:cjc026_10422"
    INDEX 01 00:23:73
  TRACK 39 AUDIO
    TITLE "0:"
    INDEX 01 00:24:74
  TRACK 40 AUDIO
    TITLE "11:cjc026_10423"
    INDEX 01 00:25:25
  TRACK 41 AUDIO
    TITLE "0:"
    INDEX 01 00:26:22
  TRACK 42 AUDIO
    TITLE "12:cjc026_10424"
    INDEX 01 00:26:48
  TRACK 43 AUDIO
    TITLE "0:"
    INDEX 01 00:27:47
  TRACK 44 AUDIO
    TITLE "10:cjc026_10425"
    INDEX 01 00:27:73
  TRACK 45 AUDIO
    TITLE "0:"
    INDEX 01 00:28:64
  TRACK 46 AUDIO
    TITLE "11:cjc026_10426"
    INDEX 01 00:29:15
  TRACK 47 AUDIO
    TITLE "0:"
    INDEX 01 00:30:32
  TRACK 48 AUDIO
    TITLE "12:cjc026_10427"
    INDEX 01 00:30:57
  TRACK 49 AUDIO
    TITLE "0:"
    INDEX 01 00:31:49
  TRACK 50 AUDIO
    TITLE "10:cjc026_10428"
    INDEX 01 00:32:00
  TRACK 51 AUDIO
    TITLE "0:"
    INDEX 01 00:32:58
  TRACK 52 AUDIO
    TITLE "11:cjc026_10429"
    INDEX 01 00:33:11
  TRACK 53 AUDIO
    TITLE "0:"
    INDEX 01 00:34:06
  TRACK 54 AUDIO
    TITLE "12:cjc026_10430"
    INDEX 01 00:34:32
  TRACK 55 AUDIO
    TITLE "0:"
    INDEX 01 00:35:15
  TRACK 56 AUDIO
    TITLE "10:cjc026_10431"
    INDEX 01 00:35:41
  TRACK 57 AUDIO
    TITLE "0:"
    INDEX 01 00:36:31
  TRACK 58 AUDIO
    TITLE "11:cjc026_10432"
    INDEX 01 00:36:58
  TRACK 59 AUDIO
    TITLE "0:"
    INDEX 01 00:37:69
  TRACK 60 AUDIO
    TITLE "12:cjc026_10433"
    INDEX 01 00:38:20
  TRACK 61 AUDIO
    TITLE "0:"
    INDEX 01 00:39:09
  TRACK 62 AUDIO
    TITLE "10:cjc026_10434"
    INDEX 01 00:39:35
  TRACK 63 AUDIO
    TITLE "0:"
    INDEX 01 00:40:32
  TRACK 64 AUDIO
    TITLE "11:cjc026_10435"
    INDEX 01 00:40:60
  TRACK 65 AUDIO
    TITLE "0:"
    INDEX 01 00:41:67
  TRACK 66 AUDIO
    TITLE "12:cjc026_10436"
    INDEX 01 00:42:18
  TRACK 67 AUDIO
    TITLE "0:"
    INDEX 01 00:43:15
  TRACK 68 AUDIO
    TITLE "10:cjc026_10437"
    INDEX 01 00:43:42
  TRACK 69 AUDIO
    TITLE "0:"
    INDEX 01 00:44:30
  TRACK 70 AUDIO
    TITLE "11:cjc026_10438"
    INDEX 01 00:44:56
  TRACK 71 AUDIO
    TITLE "0:"
    INDEX 01 00:45:57
  TRACK 72 AUDIO
    TITLE "12:cjc026_10439"
    INDEX 01 00:46:06
  TRACK 73 AUDIO
    TITLE "0:"
    INDEX 01 00:46:70
  TRACK 74 AUDIO
    TITLE "10:cjc026_10440"
    INDEX 01 00:47:21
  TRACK 75 AUDIO
    TITLE "0:"
    INDEX 01 00:48:22
  TRACK 76 AUDIO
    TITLE "11:cjc026_10441"
    INDEX 01 00:48:48
  TRACK 77 AUDIO
    TITLE "0:"
    INDEX 01 00:49:45
  TRACK 78 AUDIO
    TITLE "12:cjc026_10442"
    INDEX 01 00:49:70
  TRACK 79 AUDIO
    TITLE "0:"
    INDEX 01 00:50:74
  TRACK 80 AUDIO
    TITLE "10:cjc026_10443"
    INDEX 01 00:51:22
  TRACK 81 AUDIO
    TITLE "0:"
    INDEX 01 00:52:28
  TRACK 82 AUDIO
    TITLE "11:cjc026_10444"
    INDEX 01 00:52:49
  TRACK 83 AUDIO
    TITLE "0:"
    INDEX 01 00:53:47
  TRACK 84 AUDIO
    TITLE "12:cjc026_10445"
    INDEX 01 00:53:70
  TRACK 85 AUDIO
    TITLE "0:"
    INDEX 01 00:54:74
